<svg xmlns="http://www.w3.org/2000/svg" width="18" height="18" viewBox="0 0 18 18">
    <g fill="none" fill-rule="evenodd">
        <path d="M0 0H18V18H0z"/>
        <path fill="#000" fill-opacity=".5" d="M9.375 11.7v1.498h6.83c.312 0 .563.251.563.563 0 .31-.251.562-.56.562H9.374v1.502H8.25V11.7h1.125zm-2.92 1.498l.002 1.125H1.793c-.312 0-.563-.251-.563-.562 0-.312.251-.563.563-.563h4.663zm.67-6.26v4.125H6V9.56H1.793c-.312 0-.563-.25-.563-.562 0-.311.251-.562.563-.562H6V6.937h1.125zm9.08 1.498c.312 0 .563.25.563.562 0 .311-.251.563-.56.563H8.543V8.436h7.663zm-3.537-6.26v1.5h3.54c.31 0 .562.252.562.563 0 .312-.251.563-.563.563h-3.54v1.5h-1.124V2.177h1.125zm-3.21 1.5v1.126H1.792c-.312 0-.563-.251-.563-.563 0-.31.251-.562.563-.562h7.664z"/>
    </g>
</svg>
