<svg xmlns="http://www.w3.org/2000/svg" width="24" height="24" viewBox="0 0 24 24">
    <g fill="none" fill-rule="evenodd">
        <path d="M0 0H24V24H0z"/>
        <path fill="#000" d="M5.687 15.48c.186.185.29.442.29.704 0 .262-.106.52-.29.705-.183.186-.438.292-.697.292-.26 0-.515-.106-.7-.292-.186-.185-.29-.443-.29-.705 0-.262.106-.517.29-.705.368-.371 1.029-.369 1.397 0zm13.47-.03c.41 0 .742.33.742.742 0 .41-.331.742-.742.742H8.035c-.41 0-.742-.332-.742-.742 0-.411.332-.743.742-.743h11.122zm-13.47-4.573c.186.186.29.443.29.705 0 .262-.106.522-.29.705-.183.186-.438.292-.697.292-.26 0-.515-.106-.7-.292-.186-.183-.29-.443-.29-.705 0-.262.106-.52.29-.705.366-.369 1.029-.369 1.397 0zm13.47-.03c.41 0 .742.332.742.743 0 .41-.331.742-.742.742H8.035c-.41 0-.742-.332-.742-.742 0-.411.332-.743.742-.743h11.122zm-13.47-4.57c.186.186.29.443.29.706 0 .262-.106.522-.29.705-.183.185-.438.292-.697.292-.26 0-.515-.107-.7-.292-.186-.186-.29-.443-.29-.705 0-.26.106-.52.29-.706.368-.37 1.029-.368 1.397 0zm13.47-.03c.41 0 .742.332.742.743 0 .41-.331.742-.742.742H8.035c-.41 0-.742-.331-.742-.742 0-.41.332-.742.742-.742h11.122z"/>
    </g>
</svg>
